<?xml version="1.0" encoding="utf-8"?>
<!-- Generator: Adobe Illustrator 26.0.1, SVG Export Plug-In . SVG Version: 6.00 Build 0)  -->
<svg version="1.1" id="Layer_1" xmlns="http://www.w3.org/2000/svg" xmlns:xlink="http://www.w3.org/1999/xlink" x="0px" y="0px"
	 viewBox="0 0 800 800" style="enable-background:new 0 0 800 800;" xml:space="preserve">
<style type="text/css">
	.st0{opacity:0.78;fill:none;stroke:#000000;stroke-width:33.3333;stroke-linecap:square;stroke-miterlimit:133.3333;}
	.st1{fill:none;}
	.st2{opacity:0.78;}
</style>
<path class="st0" d="M789.7-9"/>
<path class="st1" d="M121,223"/>
<path class="st2" d="M416.7,135.3c1.7,2.6,1.7,2.6,3.5,6.1c0.5,0.9,0.5,0.9,1,1.9c1.1,2.1,2.2,4.2,3.3,6.3c0.8,1.5,1.5,2.9,2.3,4.4
	c1.6,3,3.1,6,4.7,9c3.3,6.4,6.7,12.7,10.1,19c0.6,1.2,1.2,2.3,1.9,3.5c4.2,7.9,8.5,15.7,12.8,23.5c4.4,8,8.7,16.1,13,24.1
	c6.1,11.4,12.3,22.8,18.5,34.2c1-0.3,2-0.7,3-1c22.2-1.9,39.5,11.6,56,25c0.6,0.5,1.1,0.9,1.7,1.4c12.9,10.5,19.8,19.1,23.7,35.5
	c0.3,1.3,0.3,1.3,0.6,2.6c4.6,20.4,8.5,41.6,10,62.4c0.1,0.9,0.1,1.7,0.2,2.6c0.2,2.8,0.4,5.7,0.6,8.5c0.1,1.3,0.1,1.3,0.2,2.6
	c0.5,9.7-1.6,15.7-8,23.1c-8.2,8.9-16.7,17.5-26.2,25c-2.6,1.9-2.6,1.9-4.2,3.9c-4.2,4.4-7.2,5.7-13.4,6c-2.8,0-5.5-0.1-8.3-0.2
	c-1.5,0-3-0.1-4.5-0.1c-4-0.1-7.9-0.2-11.9-0.4c-2.5-0.1-5-0.2-7.5-0.2c-4.2-0.1-8.3-0.3-12.5-0.4c-1.6-0.1-3.2-0.1-4.8-0.2
	c-28.1-1-49.9-20.7-70-38.7c-1.7-1.5-3.4-3-5.2-4.6c-12.4-11-16.6-18.6-17.6-35c0-4.2,0.1-8.3,0.2-12.5c0-1.1,0.1-2.3,0.1-3.4
	c0.3-7,0.9-13.9,1.9-20.8c0.1-0.8,0.2-1.5,0.3-2.3c1.3-7.8,5.1-12.3,11.4-17c5.4-3,5.4-3,8-3c-0.3-0.6-0.7-1.2-1-1.8
	C355,222.4,355,222.4,362.8,193.1c2.9-8.5,8.4-15.8,15.9-20.8c4-3.2,5.1-8.1,6.7-12.8c4.5-11.4,14.9-19.7,25.9-24.5
	C413.7,134.3,413.7,134.3,416.7,135.3z M404.8,156c-5.2,5.2-7.9,10.2-8.3,17.6c1,24.3,21.3,53.4,31.8,74.9c0.5,1,1,2,1.5,3
	c1.4,2.9,2.8,5.7,4.2,8.6c0.6,1.3,0.6,1.3,1.3,2.6c2,4,4,7.9,6.3,11.7c0.7-0.7,1.4-1.5,2.2-2.2c1.4-1.4,1.4-1.4,2.8-2.8
	c0.7-0.8,1.4-1.5,2.1-2.3c4.8-2.7,9.6-2.3,14.9-1.7c2.6,0.8,4.6,1.7,7,3c-1.7-5.9-4.5-11.1-7.4-16.5c-0.5-1-1.1-2-1.6-3.1
	c-4-7.5-8-14.9-12.1-22.4c-4.7-8.6-9.3-17.3-13.9-26c-8.5-16.1-17.1-32.1-26-48C407.7,152.3,406.1,154.7,404.8,156z M383.7,185.3
	c-5.2,5.5-8.2,11.8-8.6,19.4c1.6,37.7,28.5,82.3,48.6,113.6c4.9-2.1,7.7-4.9,9.7-9.7c4-12.2,1.4-20.8-4.3-31.9
	c-2-3.8-4.1-7.6-6.1-11.4c-1.8-3.3-3.5-6.6-5.3-10c-0.7-1.3-1.4-2.7-2.1-4c-0.3-0.7-0.7-1.3-1-2c-1-2-2.1-4-3.1-5.9
	c-5.6-10.5-10.6-21.2-15.3-32.1c-0.3-0.7-0.6-1.4-0.9-2.2c-1.4-3.2-2.7-6.3-4.1-9.5c-2.1-4.8-4.2-9.6-6.4-14.3
	C384.4,185.3,384,185.3,383.7,185.3z M456.7,277.3c-4.7,8.6-10.1,19-9,29c1,2.8,2.4,5.5,3.8,8.1c3.4,6.8,6.1,13.5,8.2,20.9
	c0.3,0,0.7,0,1,0c1.2-6.8,1.3-13.7,1.5-20.6c0.2-7.1,0.4-14.3,0.9-21.4c0.1-1,0.1-2,0.2-3.1c0.4-3.2,1.3-5.9,2.4-8.9
	c-1.7-1-1.7-1-3.4-2c-0.6-0.4-1.3-0.7-1.9-1.1C458.7,277.2,458.7,277.2,456.7,277.3z M488.6,283.1c-0.7,0.4-1.4,0.7-2.1,1.1
	c-2,1-3.9,2-5.8,3.1c-0.8,0.4-1.6,0.8-2.4,1.3c-3.9,4.3-2.8,13.8-3,19.4c0,0.9-0.1,1.9-0.1,2.8c-0.1,3.1-0.3,6.1-0.4,9.2
	c-0.1,2.2-0.2,4.3-0.3,6.5c-0.2,4.5-0.4,9-0.5,13.5c-0.2,5.7-0.5,11.5-0.7,17.2c-0.2,4.4-0.4,8.9-0.5,13.3c-0.1,2.1-0.2,4.2-0.3,6.3
	c-0.5,11.1-0.9,22.2-0.7,33.4c7-0.3,13.3-1.6,19-6c4-5.6,5.1-10.9,6.1-17.6c0.2-1.1,0.3-2.1,0.5-3.2c1.5-10.3,2.4-20.6,3.2-31
	c0.1-1.2,0.1-1.2,0.2-2.5c0.8-9.6,1.2-19.1,1.1-28.8c4.3,0.3,8.6,0.7,13,1c0,5.9,0,11.9,0,18c2-0.7,4-1.3,6-2
	c-0.5,0.9-1,1.8-1.5,2.7c-5.1,9.9-6.9,18.7-7.7,29.7c-0.8,9.1-1.7,18-3.8,26.9c-0.2,0.7-0.3,1.4-0.5,2.1c-1.6,6.7-4,11.9-9.6,16.1
	c-2.3,1.4-4.5,2.4-7,3.5c-0.7,0.3-1.4,0.6-2.1,0.9c-8.8,3.2-21.8,4.7-30.9,2.1c-0.3-2-0.7-4-1-6c-1.9,0.6-1.9,0.6-3.8,1.2
	c-5.8,1.9-11.5,3.8-17.2,5.8c0,1,0,2,0,3c1.6,1.6,1.6,1.6,3.8,3.1c0.8,0.6,1.6,1.2,2.4,1.8c0.9,0.6,1.7,1.2,2.6,1.9
	c0.9,0.6,1.7,1.3,2.6,1.9c2.5,1.8,5,3.6,7.5,5.3c0.6,0.4,1.2,0.9,1.8,1.3c11.2,7.9,22.6,8.2,35.9,8.8c0.8,0,1.6,0.1,2.5,0.1
	c3.3,0.2,6.6,0.3,9.9,0.4c4.5,0.2,9,0.5,13.5,0.8c9.2,0.6,9.2,0.6,17.7-2.5c2.8-2.5,5.2-5.1,7.6-8c1.2-1.1,2.5-2.2,3.8-3.2
	c4.2-3.6,8.1-7.5,12.1-11.4c0.7-0.6,1.3-1.3,2-2c6.6-6.5,6.6-6.5,8.5-15.3c-0.2-7.2-1.1-14.4-2-21.5c-0.1-0.7-0.2-1.4-0.3-2.2
	c-2.3-18.8-5.2-37.5-9.7-55.9c-0.3-1.2-0.3-1.2-0.6-2.4c-5.2-20-27.9-33.1-44.8-43.2C503.1,279.2,498.3,278.1,488.6,283.1z
	 M435.9,327.1c-6.5,5.1-13.7,8.7-21.2,12.1c-5.4,2.5-5.4,2.5-8.6,7.3c-0.1,1.2-0.3,2.5-0.4,3.7c-0.1,0.7-0.2,1.3-0.3,2
	c-0.6,5.2-0.9,10.3-0.9,15.5c0,0.8,0,1.5,0,2.3c0,1.6,0,3.2,0,4.8c0,2.5,0,4.9-0.1,7.4c0,1.6,0,3.2,0,4.7c0,0.7,0,1.5,0,2.2
	c0,8.1,3.8,13.5,9.4,18.9c2.9,1.1,5.7,1.2,11,9c2.3-3.5,2.3-4.9,2.3-9c0-1.2,0.1-2.4,0.1-3.6c0-1.2,0-2.5,0.1-3.7
	c0-2.4,0.1-4.9,0.2-7.3c0-1.1,0-2.2,0.1-3.3c0.5-5.1,2.1-9.2,4.9-13.5c0.8-1.2,0.8-1.2,1.5-2.4c0.5-0.8,1.1-1.6,1.6-2.5
	c9.5-14.3,9.5-14.3,12.2-30.8c-0.8-3.2-1.9-6.3-3-9.4c-0.3-0.8-0.6-1.7-0.9-2.5c-0.7-2-1.4-4-2.1-6.1
	C439.6,323.3,437.4,326,435.9,327.1z M458.7,356.3c-0.5,1.1-0.9,2.1-1.4,3.2c-0.7,1.5-1.3,2.9-2,4.4c-0.3,0.8-0.7,1.5-1.1,2.3
	c-2.2,4.6-4.6,8.6-7.7,12.7c-7,9.2-6.9,17.2-5.9,28.4c6-1.4,8.2-2.7,11.6-7.7c0.5-0.8,0.9-1.5,1.4-2.3c0.5-0.7,1-1.5,1.4-2.3
	c6.6-11.4,4.7-25.9,4.6-38.7C459.4,356.3,459,356.3,458.7,356.3z"/>
<path class="st2" d="M282,385.9c0.6,0.4,1.2,0.9,1.9,1.3c10.5,7.4,20,15.7,29.1,24.7c0.8,0.8,1.6,1.6,2.5,2.4
	c8.5,8.8,12.5,20.3,16.5,31.6c1.1,0.1,2.2,0.3,3.4,0.4c64.3,7.6,64.3,7.6,73.8,18.1c9.4,12.8,12.5,26.8,11.8,42.5c-1,0.3-2,0.7-3,1
	c0.8,1,1.6,1.9,2.4,2.9c4.6,6.4,5.5,14.3,4.6,22.1c-0.5,1.6-1,3.2-1.5,4.8c-0.3,0.8-0.6,1.6-0.8,2.4c-0.2,0.6-0.4,1.2-0.6,1.8
	c-0.7,0-1.3,0-2,0c-16.2-0.1-32.5-0.1-48.7-0.1c-7.9,0-15.7,0-23.6,0c-6.8,0-13.7,0-20.5,0c-3.6,0-7.2,0-10.9,0c-4.1,0-8.1,0-12.2,0
	c-1.2,0-2.4,0-3.6-0.1c-8,0.1-11.9,2.2-17.5,8c-0.7,0.7-1.4,1.5-2.1,2.2c-1.2,1-2.3,2-3.5,2.9c-0.5,0.4-1,0.8-1.6,1.2
	c-0.5,0.4-1.1,0.8-1.6,1.2c-0.6,0.5-1.2,0.9-1.8,1.4c-1.8,1.4-3.7,2.8-5.5,4.3c-0.6,0.5-1.2,0.9-1.8,1.4
	c-24.9,19.3-24.9,19.3-37.8,18.3c-7.1-1.6-13.2-5.1-19.4-8.8c-0.6-0.4-1.3-0.7-2-1.1c-24.5-14.3-46.9-32.8-67-52.7
	c-0.6-0.6-1.1-1.1-1.7-1.7c-5.2-5.2-6.5-8.4-6.7-15.6c0-21.5,3.7-42.5,7.9-63.5c0.1-0.7,0.3-1.5,0.4-2.2c5.1-26,5.1-26,12.1-31.2
	c4.7-2.8,9.4-5.2,14.4-7.4c0.7-0.3,1.4-0.6,2.1-0.9c30.4-13,57.1-19.6,23.7-8.6c0.8-0.3,1.5-0.5,2.3-0.8c15-5,30.1-9.4,45.5-13.3
	c0.8-0.2,1.7-0.4,2.5-0.7C256.9,370.6,269.6,377.3,282,385.9z M234.3,390.2c-0.7,0.2-1.3,0.3-2,0.5c-23.4,6.1-47.6,13.1-69.2,24.2
	c-1.4,0.5-1.4,0.5-2.8,1c-3.8,3.4-4.2,8.1-5.2,12.9c-0.2,1.1-0.5,2.2-0.8,3.4c-3.8,17.5-7,35.1-9.1,52.9c-0.1,1.1-0.3,2.1-0.4,3.2
	c-1.3,10.6-1.3,10.6,2.1,20.4c1.1,1.1,1.1,1.1,2.3,2.3c0.8,0.8,1.6,1.7,2.5,2.5c3.4,3.2,6.8,6.3,10.4,9.3c1.5,1.2,1.5,1.2,2.9,2.5
	c15.7,13.5,32.2,26,50.1,36.5c0.6,0.3,1.1,0.7,1.7,1c1.7,1,3.4,2,5.2,3c1,0.6,2,1.2,3.1,1.8c3.9,1.5,6,1.2,10.1,0.2
	c2.6-1.2,5-2.7,7.4-4.2c0.7-0.4,1.4-0.9,2.1-1.3c9.1-5.9,17.8-12.8,25.5-20.4c-13.2,0-26.4,0-40,0c0-4.3,0-8.6,0-13
	c59.7,0,119.5,0,181,0c0.1-6.3,0.1-6.3-3-11c-2.4-1.9-2.4-1.9-5.2-3.5c-0.9-0.5-1.8-1.1-2.7-1.7c-1-0.6-2-1.2-3.1-1.8
	c-0.5-0.4-1.1-0.8-1.7-1.2c-5.8-4.1-10.6-4.5-17.5-4.5c-1.1,0-2.2,0-3.3-0.1c-3.6-0.1-7.3-0.1-10.9-0.1c-2.6,0-5.2-0.1-7.7-0.1
	c-5.4-0.1-10.9-0.1-16.3-0.2c-6.8-0.1-13.6-0.1-20.4-0.2c-35.5,3.3-69.5,2.9-102.1-0.5c0-4.3,0-8.6,0-13c2,0,3.9,0.1,5.9,0.1
	c18.5,0.2,37.1,0.5,55.6,0.7c9.5,0.1,19.1,0.2,28.6,0.4c8.3,0.1,16.6,0.2,25,0.3c4.4,0.1,8.8,0.1,13.2,0.2
	c20.3,0.3,40.5,0.4,60.8,0.4c-0.3-1.4-0.6-2.8-0.9-4.2c-0.2-0.8-0.3-1.6-0.5-2.4c-1.9-7.7-6-12.9-12.6-17.4c-3.4-1.4-6.7-2-10.3-2.6
	c-1.6-0.3-1.6-0.3-3.2-0.6c-41.1-7.1-83.1-9.6-124.6-12.9c-1.1-0.1-2.1-0.2-3.2-0.3c-10.7-0.8,16-1.1-16.6-0.6c0-4.3,0-8.6,0-13
	c5.3,0,10.6,0,16,0c-1-3-1-3-2-6c-0.4-2-0.7-4-1-6c0.7,0.5,0.7,0.5,1.4,1.1c2.1,1.6,4.3,3.2,6.4,4.8c1.1,0.8,1.1,0.8,2.2,1.7
	c0.7,0.5,1.4,1.1,2.2,1.6c0.7,0.5,1.3,1,2,1.5c3.2,2.3,5.2,3.6,9.1,3.9c0.9,0.1,1.7,0.2,2.6,0.2c1.4,0.1,1.4,0.1,2.8,0.2
	c1.4,0.1,1.4,0.1,2.9,0.3c2,0.2,4.1,0.4,6.1,0.5c3.1,0.3,6.2,0.5,9.3,0.8c2,0.2,3.9,0.3,5.9,0.5c1.4,0.1,1.4,0.1,2.8,0.2
	c4.5,0.4,8.8,0.7,13.3,0.6c-5.7-19.4-20.1-31.4-36-43c-0.8-0.6-0.8-0.6-1.7-1.2C262.2,389,253.7,385.1,234.3,390.2z"/>
</svg>
